# xmcd
#
# Track frame offsets:
#	182
#	19890
#	41207
#	54262
#	74985
#	86532
#	92547
#	105900
#	117967
#	131877
#	140362
#	162675
#	175002
#	196075
#	207397
#	221177
#
# Disc length: 3112 seconds
#
# Revision: 0
# Processed by: cddbd v1.5.2PL0 Copyright (c) Steve Scherf et al.
# Submitted via: audiograbber 1.83.01
#
DISCID=ee0c2610
DTITLE=Wishing Dulisch - The Blues I Wrote This Morning
DYEAR=1992
DGENRE=Blues
TTITLE0=Storm Will Thunder
TTITLE1=Come To Daddy
TTITLE2=The Blues I Wrote This Morning
TTITLE3=Let The Jukebox Keep On Playing 'The Thrill Is Gone' By B.B. King
TTITLE4=Man Without Woman
TTITLE5=Crippled Mind
TTITLE6=Thru
TTITLE7=Chuck And The Berries
TTITLE8=Weepin
TTITLE9=Blues After Hours
TTITLE10=Christmas Without You
TTITLE11=You Got That Something
TTITLE12=Railman
TTITLE13=How Can I Tell Her
TTITLE14=Right Time
TTITLE15=For Mama Yancey
EXTD=
EXTT0=
EXTT1=
EXTT2=
EXTT3=
EXTT4=
EXTT5=
EXTT6=
EXTT7=
EXTT8=
EXTT9=
EXTT10=
EXTT11=
EXTT12=
EXTT13=
EXTT14=
EXTT15=
PLAYORDER=
